<?xml version="1.0" standalone="no"?>
<!DOCTYPE svg PUBLIC "-//W3C//DTD SVG 20010904//EN"
 "http://www.w3.org/TR/2001/REC-SVG-20010904/DTD/svg10.dtd">
<svg version="1.0" xmlns="http://www.w3.org/2000/svg"
 width="700.000000pt" height="700.000000pt" viewBox="0 0 700.000000 700.000000"
 preserveAspectRatio="xMidYMid meet">
<metadata>
Created by potrace 1.14, written by Peter Selinger 2001-2017
</metadata>
<g transform="translate(0.000000,700.000000) scale(0.100000,-0.100000)"
fill="#000000" stroke="none">
<path d="M1230 5871 l0 -749 128 -62 c70 -34 170 -82 222 -106 52 -25 171 -82
264 -127 l169 -83 -391 -194 -392 -195 0 -966 0 -966 310 -139 c170 -76 306
-141 302 -144 -4 -4 -38 -19 -77 -35 -38 -15 -83 -34 -100 -41 -16 -6 -95 -39
-175 -71 -80 -33 -171 -70 -202 -83 l-58 -24 0 -752 0 -753 68 30 c37 17 153
69 257 116 105 47 223 100 263 119 40 19 74 34 76 34 2 0 42 17 88 39 45 21
126 57 178 81 52 23 113 50 135 60 22 10 87 39 145 65 58 25 132 59 165 75 63
30 93 43 242 109 51 22 123 54 160 72 38 17 104 47 148 67 101 45 181 81 269
121 55 25 74 30 95 23 25 -9 771 -344 901 -404 36 -17 99 -45 140 -63 41 -18
100 -44 130 -58 30 -14 100 -45 155 -70 55 -25 125 -56 155 -70 162 -73 390
-176 505 -227 72 -32 160 -72 198 -89 l67 -30 0 752 0 753 -107 44 c-60 24
-126 51 -148 61 -22 9 -103 43 -180 74 -212 87 -205 72 -63 135 68 30 159 70
203 91 123 56 185 84 243 109 l52 22 0 967 0 966 -391 194 -390 194 31 18 c17
11 32 19 35 19 2 0 79 37 172 81 92 45 222 107 288 139 66 31 150 72 188 89
l67 33 0 749 0 749 -277 -139 c-153 -76 -664 -331 -1136 -566 l-857 -429 -858
428 c-471 236 -982 491 -1134 567 l-278 139 0 -749z m2383 -1895 c62 -29 218
-104 347 -166 129 -62 321 -154 425 -204 105 -51 254 -123 333 -161 l143 -69
-93 -38 c-51 -21 -103 -43 -115 -48 -30 -13 -29 -13 -293 -120 -124 -50 -234
-95 -245 -100 -11 -5 -123 -52 -250 -103 -395 -161 -380 -156 -401 -139 -5 5
-67 33 -139 62 -71 28 -143 58 -160 65 -16 7 -77 32 -135 55 -58 23 -129 53
-158 66 -29 13 -54 24 -57 24 -2 0 -131 52 -287 115 -284 116 -296 121 -355
147 l-33 15 148 71 c81 39 221 106 312 150 91 44 224 108 295 142 142 69 432
208 535 257 36 18 66 32 68 32 2 1 53 -23 115 -53z"/>
</g>
</svg>
