<svg width="831" height="1141" viewBox="0 0 831 1141" fill="none" xmlns="http://www.w3.org/2000/svg">
<path d="M166.11 593.24L415.27 695.45L715.97 818.81L830.53 865.8V1141L415.27 954.13L114.56 818.81L0 767.26V596.05" fill="#FADE35"/>
<path d="M114.56 818.81L415.27 954.13L0 1141V865.8L114.56 818.81Z" fill="black"/>
<path d="M830.53 414.62V593.24H664.43L415.27 473.45L143.68 342.89L0 273.83V0L415.27 207.32L686.85 342.89L830.53 414.62Z" fill="#FADE35"/>
<path d="M830.53 593.24V767.26L715.97 818.81L415.27 695.45L664.43 593.24" fill="black"/>
<path d="M236.42 668.14L265.2 681.37L277.39 753.81L302.76 698.63L331.81 711.98L285.96 811.72L256.91 798.36L244.73 726.43L219.55 781.19L190.57 767.87L236.42 668.13V668.14Z" fill="black"/>
<path d="M352.3 783.05L327.12 768.09C330.24 763.92 333.36 760.94 336.46 759.16C339.56 757.37 343.33 756.32 347.76 755.99C350.95 755.75 354.94 756.27 359.74 757.54C364.54 758.81 369.52 760.64 374.7 763.01C383 766.83 389.45 770.36 394.06 773.6C398.67 776.85 401.97 780.71 403.97 785.2C405.39 788.32 405.92 792.07 405.56 796.44C405.2 800.81 404.24 804.69 402.68 808.09L388.01 840C386.45 843.4 385.44 846.17 384.98 848.29C384.52 850.42 384.33 853.31 384.41 856.97L358.42 845.02C358.23 842.68 358.2 840.95 358.33 839.83C358.46 838.71 358.85 837.03 359.49 834.8C354.25 836.62 349.5 837.46 345.23 837.31C339.42 837.05 333.26 835.43 326.78 832.45C318.16 828.49 312.54 823.49 309.9 817.44C307.27 811.39 307.3 805.45 309.99 799.6C312.51 794.11 316.2 790.34 321.04 788.28C325.89 786.22 333.04 786.32 342.49 788.58C353.83 791.27 361.24 792.9 364.71 793.48C368.18 794.06 371.95 794.46 376.02 794.68C377.58 791.28 377.97 788.57 377.19 786.57C376.41 784.56 374.25 782.75 370.71 781.12C366.17 779.03 362.44 778.2 359.5 778.61C357.21 778.93 354.8 780.41 352.27 783.03L352.3 783.05ZM369.62 808.65C365.18 808.26 360.66 807.64 356.06 806.78C349.75 805.69 345.51 805.53 343.35 806.29C341.12 807.08 339.57 808.42 338.69 810.33C337.69 812.51 337.63 814.64 338.51 816.72C339.39 818.8 341.31 820.52 344.26 821.88C347.34 823.3 350.56 823.87 353.9 823.59C357.24 823.31 359.96 822.35 362.06 820.71C364.16 819.07 366 816.52 367.59 813.07L369.62 808.65Z" fill="black"/>
<path d="M420.21 785.91L449.02 799.15L441.99 851.38L477.58 812.28L505.52 825.13L441.6 883.27L417.04 871.98L420.21 785.91Z" fill="black"/>
<path d="M527.96 863.8L502.78 848.84C505.9 844.67 509.02 841.69 512.12 839.91C515.22 838.12 518.99 837.07 523.42 836.74C526.61 836.5 530.6 837.02 535.4 838.29C540.2 839.56 545.18 841.39 550.36 843.76C558.66 847.58 565.11 851.11 569.72 854.35C574.33 857.59 577.63 861.46 579.63 865.95C581.05 869.07 581.58 872.82 581.22 877.19C580.86 881.56 579.9 885.44 578.34 888.84L563.67 920.75C562.11 924.15 561.09 926.92 560.64 929.04C560.18 931.17 559.99 934.06 560.07 937.72L534.08 925.77C533.89 923.43 533.86 921.7 533.99 920.58C534.12 919.46 534.51 917.78 535.15 915.55C529.91 917.37 525.16 918.21 520.89 918.06C515.07 917.81 508.92 916.19 502.44 913.2C493.82 909.24 488.2 904.24 485.56 898.19C482.93 892.15 482.96 886.2 485.65 880.35C488.17 874.86 491.86 871.09 496.7 869.03C501.55 866.97 508.7 867.08 518.15 869.33C529.49 872.02 536.9 873.65 540.37 874.23C543.84 874.81 547.61 875.21 551.68 875.43C553.24 872.03 553.63 869.32 552.85 867.32C552.07 865.31 549.91 863.5 546.37 861.87C541.83 859.78 538.1 858.95 535.16 859.36C532.87 859.68 530.46 861.16 527.93 863.78L527.96 863.8ZM545.28 889.4C540.84 889.01 536.32 888.39 531.72 887.53C525.41 886.44 521.17 886.28 519.01 887.04C516.78 887.83 515.23 889.17 514.35 891.08C513.35 893.26 513.29 895.39 514.17 897.47C515.05 899.55 516.97 901.27 519.92 902.63C523 904.05 526.22 904.62 529.56 904.34C532.9 904.06 535.62 903.1 537.72 901.46C539.82 899.82 541.66 897.27 543.25 893.82L545.28 889.4Z" fill="black"/>
<path d="M577.53 921.45L606.2 931.5C605.83 935.29 606.35 938.35 607.74 940.7C609.13 943.05 611.53 945 614.93 946.56C618.65 948.27 621.89 948.8 624.66 948.15C626.79 947.7 628.26 946.6 629.07 944.83C629.99 942.84 629.65 940.82 628.06 938.77C626.92 937.31 623.39 934.54 617.47 930.44C608.62 924.34 602.66 919.72 599.57 916.57C596.48 913.42 594.44 909.56 593.44 904.99C592.44 900.41 592.94 895.95 594.94 891.6C597.13 886.84 600.4 883.38 604.75 881.2C609.1 879.03 614.09 878.21 619.73 878.74C625.36 879.27 632.26 881.41 640.43 885.17C649.05 889.13 655.11 892.71 658.61 895.92C662.11 899.12 664.6 902.74 666.07 906.77C667.54 910.8 668.1 915.59 667.75 921.14L640.3 911.65C640.68 909.02 640.33 906.8 639.24 904.98C637.73 902.53 635.43 900.59 632.35 899.18C629.22 897.74 626.68 897.25 624.75 897.7C622.81 898.15 621.48 899.17 620.75 900.76C619.94 902.53 620.23 904.28 621.63 906.02C623.03 907.76 626.6 910.39 632.34 913.91C641.07 919.18 647.25 923.78 650.89 927.71C654.52 931.63 656.74 935.86 657.54 940.4C658.34 944.94 657.79 949.27 655.89 953.39C653.97 957.56 650.85 961.04 646.52 963.82C642.19 966.6 636.78 967.92 630.29 967.76C623.8 967.6 615.88 965.37 606.54 961.08C593.34 955.01 584.81 948.81 580.94 942.47C577.07 936.13 575.93 929.13 577.54 921.46L577.53 921.45Z" fill="black"/>
<path d="M830.53 0V273.83L686.85 342.89L415.27 473.45L166.12 593.24L0 596.05V414.62L143.68 342.89L415.27 207.32L830.53 0Z" fill="black"/>
<path d="M163.3 383.45L208.77 361.72C217.73 357.44 225.55 355.19 232.23 354.99C238.91 354.79 245.14 356.1 250.92 358.93C256.7 361.76 261.84 365.8 266.34 371.06C270.85 376.32 274.71 382.33 277.94 389.09C283 399.67 285.71 408.46 286.09 415.44C286.47 422.43 285.46 428.91 283.06 434.9C280.66 440.89 277.32 445.71 273.04 449.36C267.19 454.37 261.54 458.18 256.09 460.78L210.62 482.51L163.29 383.46L163.3 383.45ZM204.62 391.26L230.48 445.38L237.98 441.8C244.37 438.74 248.58 435.86 250.61 433.15C252.63 430.44 253.57 426.95 253.41 422.68C253.25 418.41 251.28 412.32 247.49 404.39C242.47 393.89 237.33 387.53 232.06 385.29C226.78 383.05 220.18 383.83 212.26 387.62L204.63 391.27L204.62 391.26Z" fill="#FADE35"/>
<path d="M592.59 178.31L620.16 165.14L667.49 264.19L639.93 277.36L592.6 178.32L592.59 178.31Z" fill="#FADE35"/>
<path d="M317.91 371.64L290.31 381.43C289.1 376.36 288.81 372.07 289.42 368.54C290.03 365.01 291.63 361.44 294.22 357.82C296.08 355.22 299.03 352.48 303.08 349.61C307.13 346.73 311.72 344.07 316.85 341.61C325.09 337.67 331.94 334.97 337.38 333.5C342.82 332.03 347.91 331.97 352.64 333.3C355.95 334.21 359.17 336.2 362.3 339.27C365.43 342.34 367.8 345.56 369.41 348.94L384.55 380.63C386.16 384.01 387.64 386.55 388.98 388.26C390.32 389.97 392.43 391.97 395.29 394.25L369.48 406.58C367.56 405.23 366.21 404.14 365.44 403.33C364.66 402.51 363.62 401.14 362.32 399.22C360.37 404.41 357.98 408.6 355.13 411.79C351.21 416.1 346.03 419.79 339.59 422.87C331.03 426.96 323.59 428.08 317.26 426.24C310.93 424.4 306.37 420.57 303.6 414.76C301 409.31 300.45 404.06 301.97 399.02C303.49 393.98 308.14 388.55 315.93 382.72C325.25 375.72 331.25 371.07 333.91 368.77C336.58 366.47 339.3 363.83 342.07 360.85C340.46 357.47 338.63 355.44 336.59 354.76C334.55 354.07 331.77 354.57 328.26 356.25C323.76 358.4 320.72 360.74 319.16 363.25C317.94 365.22 317.54 368.01 317.94 371.64H317.91ZM348.67 374.7C345.53 377.86 342.16 380.94 338.56 383.93C333.68 388.09 330.85 391.24 330.05 393.39C329.23 395.61 329.27 397.66 330.17 399.55C331.2 401.71 332.8 403.12 334.97 403.77C337.14 404.42 339.68 404.05 342.61 402.65C345.67 401.19 348.17 399.08 350.09 396.33C352.01 393.59 353.02 390.88 353.1 388.21C353.18 385.55 352.4 382.5 350.77 379.07L348.67 374.68V374.7Z" fill="#FADE35"/>
<path d="M374.03 316.28L399.64 304.04L405.23 315.73C406.78 309.13 409.02 303.86 411.96 299.94C414.9 296.02 419.18 292.71 424.81 290.02C432.42 286.38 439.46 285.8 445.93 288.27C452.39 290.74 457.89 296.71 462.41 306.16L484.2 351.77L456.57 364.98L437.71 325.52C435.56 321.02 433.2 318.23 430.64 317.15C428.08 316.08 425.29 316.26 422.27 317.7C418.94 319.29 416.84 321.85 415.97 325.36C415.1 328.88 416.23 333.9 419.35 340.43L435.82 374.89L408.32 388.03L374.03 316.28Z" fill="#FADE35"/>
<path d="M467.33 271.69L494.83 258.55L529.12 330.3L501.62 343.44L467.33 271.69ZM454.29 244.4L481.79 231.26L490.73 249.97L463.23 263.11L454.29 244.39V244.4Z" fill="#FADE35"/>
<path d="M612.46 254.79L557.33 281.14C559.94 285.32 562.7 288.04 565.63 289.29C569.77 291.13 573.98 291.02 578.26 288.98C580.96 287.69 583.21 285.79 584.99 283.27C586.07 281.71 586.94 279.43 587.62 276.45L615.91 266C615.21 275.19 612.68 282.74 608.32 288.67C603.96 294.6 596.31 300.18 585.36 305.41C575.86 309.95 567.74 312.19 561.01 312.11C554.28 312.04 547.73 309.94 541.36 305.81C534.99 301.69 529.92 295.69 526.16 287.8C520.8 276.58 520.06 265.79 523.92 255.42C527.79 245.05 536.05 236.84 548.71 230.79C558.98 225.88 567.83 223.56 575.26 223.83C582.69 224.09 589.37 226.44 595.3 230.85C601.23 235.27 606.45 242.2 610.97 251.66L612.46 254.77V254.79ZM578.19 254.98C575.11 249.92 571.86 246.8 568.44 245.61C565.02 244.42 561.42 244.73 557.64 246.54C553.27 248.63 550.61 252.03 549.65 256.75C549.02 259.71 549.5 263.43 551.09 267.93L578.18 254.98H578.19Z" fill="#FADE35"/>
</svg>
